<svg xmlns="http://www.w3.org/2000/svg" xmlns:xlink="http://www.w3.org/1999/xlink" width="400.591" height="289.898" viewBox="0 0 400.591 289.898">
  <defs>
    <clipPath id="clip-path">
      <rect id="Rectangle_545" data-name="Rectangle 545" width="65.758" height="42.52" fill="none"/>
    </clipPath>
    <linearGradient id="linear-gradient" x1="0.5" y1="1" x2="0.5" gradientUnits="objectBoundingBox">
      <stop offset="0" stop-color="#f2f4ff"/>
      <stop offset="0.784" stop-color="#f2f4ff" stop-opacity="0"/>
    </linearGradient>
  </defs>
  <g id="Group_16438" data-name="Group 16438" transform="translate(-201.001 -425.592)">
    <g id="OBJECTS" transform="translate(201.001 425.592)">
      <g id="Group_16097" data-name="Group 16097" transform="translate(0 97.059)">
        <g id="Group_16093" data-name="Group 16093" transform="translate(19.582 11.698)">
          <path id="Path_5367" data-name="Path 5367" d="M135.232,232.813a10.085,10.085,0,0,1-4.669-3.989,21.711,21.711,0,0,1-1.623-5.464c-.435-1.853-.9-3.689-1.168-5.574a47.067,47.067,0,0,1-.409-5.348,11.255,11.255,0,0,1,.066-1.494c0-.018.041-.353.044-.351.585.069,1.209.829,1.623,1.189a25.034,25.034,0,0,1,3.675,3.576,21.619,21.619,0,0,1,3.485,6.007,17.548,17.548,0,0,1,.574,8,14.864,14.864,0,0,1-.852,3.836Zm8.782,14.74a16.783,16.783,0,0,1-2.714-4.792c-1.423-4.62.582-9.374,2.374-13.547a29.35,29.35,0,0,0,1.009-4c.1-.376.239-1.1.75-1.132.674-.037,1.133.766,1.436,1.237a16.288,16.288,0,0,1,2.255,4.981c1.2,5.186-.2,9.766-2.4,14.426-.667,1.417-1.362,3.438-2.516,4.569Zm6.412,11.948c-2.136,1.219-5.265.612-7.557.249a28.79,28.79,0,0,1-18.354-10.715,42.889,42.889,0,0,1-4.438-7.094c-.312-.59-.645-1.182-.906-1.8-.078-.182-.313-.423-.177-.566.362-.38,1.4.154,1.693.282,2.1.927,4.081,2.023,6.255,2.8,7.6,2.731,14.792,6.127,19.966,12.459a20.335,20.335,0,0,1,2.456,3.084Zm8.315,12.558a32.835,32.835,0,0,1-5.013-17.536,33.821,33.821,0,0,1,1.6-8.867,58.913,58.913,0,0,1,2.658-7.323c.279-.634.542-1.272.8-1.914.027-.066.115-.446.242-.379.944.506,1.421,2,1.771,2.9a49.309,49.309,0,0,1,1.934,6.44,44.11,44.11,0,0,1,.991,6.146c.5,5.392.281,11.04-1.741,16.107a12.641,12.641,0,0,1-2.867,4.826Zm11.569,14.63c-3.344,1.442-7.194.737-10.649.107-7.127-1.3-13.871-3.833-19.492-8.528a33.125,33.125,0,0,1-6.224-7.111c-.654-.98-1.24-2-1.866-3-.236-.376-.472-.754-.715-1.125-.116-.178-.58-.513-.368-.52,1-.032,2.2.694,3.134.99,1.927.616,3.9,1.028,5.868,1.483,7.413,1.708,15.2,4.084,21.512,8.891.291.221.725.57,1.15.931a36.117,36.117,0,0,1,3.391,3.793,23.248,23.248,0,0,1,1.9,2.114Zm9.272,11.707a22.009,22.009,0,0,1-3.864-5.529,33.786,33.786,0,0,1-2.44-6.659,47.559,47.559,0,0,1-1.832-9.715,65.328,65.328,0,0,1,.6-9.359,27.808,27.808,0,0,0,.137-3.579c-.012-.37-.036-.741-.058-1.112-.008-.13-.126-.472-.025-.39a10.94,10.94,0,0,1,1.77,2.252c1.111,1.586,2.151,3.222,3.19,4.856a38.918,38.918,0,0,1,6.215,22.627c-.162,2.73-.54,6.5-2.471,8.671Zm18.831,19.426-1.108-1.775a21.485,21.485,0,0,1-4.074-5.524c-3.058-5.274-5.074-11.429-4.435-17.584.281-2.713.639-5.42.876-8.137.072-.82.133-1.63.125-2.452-.005-.486-.005-.449-.037-.908-.013-.192-.2-.694-.043-.577a8.988,8.988,0,0,1,1.7,2.407,50.932,50.932,0,0,1,3.1,5.387,52.591,52.591,0,0,1,5.491,22.128,39.143,39.143,0,0,1-.371,4.893,6.966,6.966,0,0,1-.652,2.564,15.312,15.312,0,0,1,1.529,1.31l2.662,1.516c-11.036.751-22.132-.63-31.591-6.678a42.7,42.7,0,0,1-8.963-7.878,25.441,25.441,0,0,0-2.427-2.461,8.738,8.738,0,0,0-.79-.624c-.2-.144-.867-.462-.63-.392,6.325,1.875,12.941,2.515,19.308,4.254a46.913,46.913,0,0,1,10.75,4.035c2.3,1.305,4.386,2.908,6.539,4.431C196.379,316.467,197.419,317.115,198.413,317.822ZM216.346,333.4l.008-.232c-1.584-2.445-3.475-4.662-5-7.145-3.1-5.036-5.953-10.907-7.054-16.768a52.957,52.957,0,0,1-.193-17.418c.557-3.554,1.633-6.986,2.413-10.492.286-1.288.263-2.675.553-3.936.063-.272.292.476.425.721.334.621.436.881.741,1.529.659,1.4,1.373,2.763,2.09,4.134a79.518,79.518,0,0,1,5.029,11.268c2.026,5.989,3.967,12.052,4.3,18.418a63.194,63.194,0,0,1-.321,8.369c-.312,3.83-.932,8.143-2.843,11.585l.192.045c-4.1,3.482-10.93,3.317-15.947,3.164-8.887-.273-17.562-1.645-25.083-6.729-3.708-2.508-6.641-6-10.013-8.92-.2-.173.526.079.789.115.289.042.577.085.867.119,1.34.156,2.674.2,4.021.236,3.948.112,7.85.236,11.772.734,11.4,1.447,22.207,6.317,32.585,11.041Z" transform="translate(-118.953 -210.593)" fill="#508ca4" fill-rule="evenodd" opacity="0.28"/>
          <path id="Path_5368" data-name="Path 5368" d="M250.565,361.24c-46.008-27.92-88.963-73.512-111.339-122.78a.973.973,0,0,1,1.771-.8c22.221,48.927,64.888,94.2,110.577,121.923a.972.972,0,1,1-1.008,1.662Z" transform="translate(-123.601 -216.693)" fill="#508ca4" fill-rule="evenodd"/>
        </g>
        <g id="Group_16094" data-name="Group 16094" transform="translate(256.19 85.484)">
          <path id="Path_5369" data-name="Path 5369" d="M550.529,335.245a34.89,34.89,0,0,1,5.394-3.348c4.5-2.531,9.584-4.654,14.844-4.265,2.054.152,5.573.442,6.662,2.554.9,1.749-1.391,3.541-2.683,4.2-4.314,2.189-9.205,2.568-13.98,2.481a82.015,82.015,0,0,1-11.345-.784Zm-6.663,5.43c.094-4.026,1.659-8.157,3.005-11.909,2.183-6.086,4.534-11.718,8.549-16.819,1.506-1.912,3.083-4.3,5.513-5.113,1.107-.372,2.534-.677,3.543.122,1.245.985,1.309,2.754,1.138,4.194a24.932,24.932,0,0,1-2.061,7.12,43.07,43.07,0,0,1-9.4,13.068c-1.357,1.323-2.95,2.39-4.3,3.726-1.618,1.606-3.147,3.3-4.861,4.81ZM522.2,354.354q-.775.621-1.547,1.237l-2.446.507c3.2-5.768,4.481-12.574,7.281-18.567a36.692,36.692,0,0,1,12.068-13.915c2.288-1.6,6.072-2.987,6.633.921.545,3.789-1.977,8.2-3.914,11.28-4.254,6.757-10.284,12.2-16.466,17.238l1.077-.589a57.243,57.243,0,0,0,7.2-3.273,44.419,44.419,0,0,1,7.375-3.271,43.609,43.609,0,0,1,14.863-2.646c1.566-.009,3.553-.241,5.044.373,1.97.813,1.673,3.543.811,5.056-1.671,2.936-5.1,5.13-8.142,6.406-5.783,2.426-13.313,2.931-19.5,1.918C529.049,356.458,525.654,355.15,522.2,354.354Zm-22.532,11.692a64.533,64.533,0,0,1,10.89-3.494c8.179-2.2,16.64-3.979,25.153-3.105,1.366.141,1.611.176,2.987.386,1.335.206,1.478.229,2.763.5,2.132.448,8.339,2.436,6.494,6.032-2.356,4.589-9.409,6.148-14.062,6.524-12.1.978-23.99-3.794-35.58-6.658Zm-12.785,5.135c.049-4.635,2.811-8.951,4.779-13,4.372-8.988,8.974-18.508,15.536-26.155.653-.761,1.339-1.526,2.044-2.242,2.38-2.419,7.694-7.115,11.361-3.93a5.046,5.046,0,0,1,1.3,4.191c-.2,3.427-2.08,6.813-3.8,9.7-4.684,7.874-10.679,14.507-17.13,20.925-3.179,3.163-6.382,6.9-10.406,9.025Zm-21.01,7.372-.372.284c-1.075-4.144,1.18-8.691,2.487-12.5a107.855,107.855,0,0,1,13.188-26.92c.476-.68,1.342-1.81,1.85-2.468,1.96-2.542,6.556-8.611,10.544-6.4,1.686.935,2,2.983,2.051,4.735.1,3.9-1.289,7.676-2.857,11.184-4.931,11.027-13.206,19.067-21.9,27.141-1.484,1.379-2.72,3-4.228,4.361l-.3.232,1.924-.235c1.724-1.25,3.959-1.532,6.008-1.9,2.435-.433,4.892-.789,7.348-1.081a144.795,144.795,0,0,1,26.6-1.027c4.528.3,9.476.892,13.009,4.058a6.655,6.655,0,0,1,1.553,2.015c1.654,3.417-.164,6.378-3.069,8.2-5.775,3.622-13.27,3.337-19.725,2.186a105.241,105.241,0,0,1-14.16-3.5c-3.849-1.255-7.476-2.892-11.206-4.444A84.87,84.87,0,0,1,465.87,378.553Z" transform="translate(-435.292 -306.452)" fill="#508ca4" fill-rule="evenodd" opacity="0.18"/>
          <path id="Path_5370" data-name="Path 5370" d="M427.351,390.265c47.043-8.162,97.288-31.91,131.724-65.359a.863.863,0,1,0-1.2-1.238c-34.2,33.217-84.1,56.791-130.817,64.9a.863.863,0,1,0,.295,1.7Z" transform="translate(-426.34 -310.36)" fill="#508ca4" fill-rule="evenodd"/>
        </g>
        <g id="Group_16095" data-name="Group 16095" transform="translate(257.626)">
          <path id="Path_5371" data-name="Path 5371" d="M453.621,317.057c3.41-13.176,9.272-26.2,14.838-38.62,2.349-5.243,4.544-11.61,8.678-15.78,4.423-4.462,8.029,1.122,12.477,1.375,3.313.188,5.691-3.248,7.122-5.756,6.159-10.792,8.392-23.276,13.705-34.433,1.944-4.083,4.911-10.729,9.46-12.605,6.418-2.646,6.811,9.695,12.44,7.916,2.339-.738,3.769-2.794,4.959-4.795,1.044-1.755,1.975-3.56,2.893-5.384.693-1.379,1.411-2.729,2.173-4.071,2.251-3.953,8.62-13.377,14.166-7.769,2.954,2.987,1.787,7.523.3,10.928-3.6,8.258-10.9,14.223-13.119,23.24-1.74,7.081,5.874,8.945,2.7,16.7-3.785,9.264-13.921,13.93-21.91,18.829-3.22,1.973-7.266,4.059-9.448,7.279-2.262,3.338,2.536,5.506,3.7,8.1,2.2,4.895-3.1,10.258-6.771,12.641C495.008,305.867,473.876,309.636,453.621,317.057Z" transform="translate(-434.058 -195.396)" fill="#059e4b" fill-rule="evenodd" opacity="0.18"/>
          <path id="Path_5372" data-name="Path 5372" d="M429.26,337.516c10.576-3.418,20.437-11.26,29.294-17.613,19.618-14.074,37.5-30.211,52.485-49.215a223.7,223.7,0,0,0,15.01-21.048c2.216-3.589,4.665-7.607,6.015-11.929a.807.807,0,1,0-1.541-.482c-1.311,4.192-3.7,8.082-5.848,11.564a221.767,221.767,0,0,1-14.905,20.9c-14.884,18.885-32.662,34.918-52.157,48.9-8.727,6.26-18.427,14.022-28.848,17.389a.807.807,0,1,0,.5,1.536Z" transform="translate(-428.205 -204.898)" fill="#059e4b" fill-rule="evenodd"/>
        </g>
        <g id="Group_16096" data-name="Group 16096" transform="translate(0 91.685)">
          <path id="Path_5373" data-name="Path 5373" d="M223.462,391.446c-7.2-10.625-16.535-20.341-25.411-29.609-3.747-3.913-7.714-8.875-12.707-11.27C180,348,178.567,354.106,174.7,355.738c-2.885,1.217-6.086-1.083-8.151-2.857-8.89-7.637-14.827-18.02-23.08-26.25-3.02-3.012-7.761-7.975-12.4-8.2-6.54-.319-2.98,10.769-8.544,10.972-2.312.084-4.233-1.289-5.923-2.689-1.484-1.229-2.882-2.537-4.275-3.867-1.053-1-2.117-1.978-3.22-2.927-3.251-2.8-11.894-9.155-15.045-2.417-1.679,3.589.8,7.249,3.194,9.8,5.815,6.195,14.192,9.182,19.015,16.491,3.787,5.74-2.385,9.807,2.886,15.693,6.3,7.031,16.778,7.967,25.427,9.788,3.485.734,7.74,1.3,10.7,3.475,3.066,2.248-.509,5.694-.721,8.367-.4,5.044,6,8.132,10.017,9.087C183.152,394.613,203.119,391.269,223.462,391.446Z" transform="translate(-93.513 -314.508)" fill="#c8e8d9" fill-rule="evenodd"/>
          <path id="Path_5374" data-name="Path 5374" d="M251.384,402.345c-10.477.313-21.723-3.532-31.6-6.371-21.886-6.29-42.886-14.961-62.212-27.1a211.119,211.119,0,0,1-20-13.945,51.077,51.077,0,0,1-9.121-8.693.761.761,0,1,1,1.215-.915,49.624,49.624,0,0,0,8.857,8.42,209.517,209.517,0,0,0,19.858,13.844c19.2,12.062,40.074,20.675,61.822,26.925,9.736,2.8,20.811,6.621,31.134,6.313a.761.761,0,1,1,.046,1.521Z" transform="translate(-101.522 -321.534)" fill="#059e4b" fill-rule="evenodd"/>
        </g>
      </g>
      <g id="Group_16104" data-name="Group 16104" transform="translate(83.783 135.991)">
        <rect id="Rectangle_526" data-name="Rectangle 526" width="228.048" height="5.217" transform="translate(0.001 148.69)" fill="#c3cccc"/>
        <path id="Path_5421" data-name="Path 5421" d="M0,0H182.576V114.411H0Z" transform="translate(22.732)" fill="#c3cccc"/>
        <path id="Path_5375" data-name="Path 5375" d="M430.4,428.9H202.359l22.8-34.282H407.594Z" transform="translate(-202.359 -280.201)" fill="#e1e3e3" fill-rule="evenodd"/>
        <path id="Path_5376" data-name="Path 5376" d="M403.293,402.708h4.531l2.734,4.139h-7.266Zm-44.131,4.139h41.887v-4.139H359.162Zm-11.541,0h9.3v-4.139h-9.3Zm-11.542,0h9.3v-4.139h-9.3Zm-11.544,0h9.3v-4.139h-9.3Zm-11.541,0h9.3v-4.139h-9.3Zm-12.178,0h9.933v-4.139h-9.933Zm-11.542,0h9.3v-4.139h-9.3Zm-11.543,0h9.3v-4.139h-9.3Zm-11.542,0h9.3v-4.139h-9.3Zm-2.244-4.139v4.139H232.461l2.734-4.139Zm139.349,6.141h8.589l3.25,4.922H403.293Zm-44.131,4.922h41.887v-4.922H359.162Zm-11.541,0h9.3v-4.922h-9.3Zm-11.542,0h9.3v-4.922h-9.3Zm-11.544,0h9.3v-4.922h-9.3Zm-11.541,0h9.3v-4.922h-9.3Zm-12.178,0h9.933v-4.922h-9.933Zm-11.542,0h9.3v-4.922h-9.3Zm-11.543,0h9.3v-4.922h-9.3Zm-11.542,0h9.3v-4.922h-9.3Zm-2.244-4.922v4.922H227.888l3.25-4.922Zm95.218,7.888h57.929l4.785,7.244H359.162ZM347.62,423.98h9.3v-7.244h-9.3Zm-11.542,0h9.3v-7.244h-9.3Zm-11.544,0h9.3v-7.244h-9.3Zm-11.541,0h9.3v-7.244h-9.3Zm-2.244-7.244v7.244H221.144l4.785-7.244Z" transform="translate(-206.685 -282.064)" fill="#508ca4" fill-rule="evenodd"/>
        <path id="Path_5422" data-name="Path 5422" d="M0,0H168.157V98.464H0Z" transform="translate(29.941 8.226)" fill="#e1e3e3" opacity="0.76"/>
      </g>
      <g id="Group_16107" data-name="Group 16107" transform="translate(120.514 74.798)">
        <path id="Path_5383" data-name="Path 5383" d="M263.876,280.722V236.109a66.143,66.143,0,0,1,132.286,0v44.613h-11.4V236.109a54.738,54.738,0,1,0-109.477,0v44.613Z" transform="translate(-253.255 -167.28)" fill="#059e4b" fill-rule="evenodd"/>
        <path id="Path_5384" data-name="Path 5384" d="M401.6,314.647s-1.954,12.021-8.284,21.292c-3.612,5.293-8.577,10.512-15.654,11.738a62.442,62.442,0,0,1-22.325-.236c-4.37-.9-13.393-2.206-9-8.618,1.778-2.6-5.027-3.712-7.768-2.165a5.705,5.705,0,0,0-2.165,7.768c3.749,6.649,9.56,10.254,17.455,11.885,6.52,1.346,14.668,1.269,24.288.781,10.3-.52,18.266-7.2,23.873-15.417,7.5-10.986,10.682-24.4,10.682-24.4a5.7,5.7,0,1,0-11.1-2.628Z" transform="translate(-269.786 -199.584)" fill="#059e4b" fill-rule="evenodd"/>
        <path id="Path_5385" data-name="Path 5385" d="M435.635,251.363l-20.567-.161s-7.15,31.429.668,53.785l19.83.521Z" transform="translate(-287.381 -185.985)" fill="#508ca4" fill-rule="evenodd"/>
        <path id="Path_5386" data-name="Path 5386" d="M440.893,251.334c3.2,0,5.792,12.144,5.792,27.1s-2.6,27.1-5.792,27.1-5.792-12.144-5.792-27.1S437.7,251.334,440.893,251.334Z" transform="translate(-292.682 -186.016)" fill="#3d7084" fill-rule="evenodd"/>
        <path id="Path_5387" data-name="Path 5387" d="M257.545,251.363l20.566-.161s7.15,31.429-.668,53.785l-19.83.521Z" transform="translate(-251.797 -185.985)" fill="#508ca4" fill-rule="evenodd"/>
        <path id="Path_5388" data-name="Path 5388" d="M255.868,251.334c-3.2,0-5.79,12.144-5.79,27.1s2.594,27.1,5.79,27.1,5.792-12.144,5.792-27.1S259.065,251.334,255.868,251.334Z" transform="translate(-250.078 -186.016)" fill="#3d7084" fill-rule="evenodd"/>
        <path id="Rectangle_543" data-name="Rectangle 543" d="M4.427,0h15.9a4.425,4.425,0,0,1,4.425,4.425V9.2a4.427,4.427,0,0,1-4.427,4.427H4.427A4.427,4.427,0,0,1,0,9.2V4.427A4.427,4.427,0,0,1,4.427,0Z" transform="translate(58.952 132.723)" fill="#508ca4"/>
        <path id="Path_5389" data-name="Path 5389" d="M369.661,187.032a4.157,4.157,0,0,1-5.269,1.642c-6.715-2.91-22.825-8.189-40.645-1.893a4.136,4.136,0,0,1-5.238-2.343c-.967-2.335-2.171-5.318-3.1-7.611a4.157,4.157,0,0,1,2.094-5.323c8.257-3.626,29.98-10.56,54.68,2.99a4.139,4.139,0,0,1,1.543,5.763C372.479,182.366,370.891,185,369.661,187.032Z" transform="translate(-265.052 -166.476)" fill="#508ca4" fill-rule="evenodd"/>
      </g>
      <g id="Group_16108" data-name="Group 16108" transform="translate(130.763 52.427)">
        <path id="Path_5390" data-name="Path 5390" d="M278.026,158.181a3.48,3.48,0,0,0-6.96,0V176.87a3.48,3.48,0,0,0,6.96,0Z" transform="translate(-265.159 -141.394)" fill="#059e4b" fill-rule="evenodd"/>
        <path id="Path_5391" data-name="Path 5391" d="M269.462,137.413a9.4,9.4,0,0,0-6.07,8.784v.477a9.387,9.387,0,0,0,18.775,0V146.2a9.4,9.4,0,0,0-6.055-8.777v8.449a3.325,3.325,0,0,1-6.65,0Z" transform="translate(-263.392 -137.413)" fill="#059e4b" fill-rule="evenodd"/>
      </g>
      <g id="Group_16115" data-name="Group 16115" transform="translate(249.847 0)">
        <g id="Group_16114" data-name="Group 16114">
          <path id="Path_5397" data-name="Path 5397" d="M519.783,117.949C519.783,91.1,497,69.3,468.942,69.3S418.1,91.1,418.1,117.949a47.842,47.842,0,0,0,18.416,37.467l-1.244,21.212,18.036-12.391a52.946,52.946,0,0,0,15.633,2.358C497,166.594,519.783,144.8,519.783,117.949Z" transform="translate(-418.1 -69.303)" fill="#d6e4ea" fill-rule="evenodd" opacity="0.29"/>
          <g id="Group_16113" data-name="Group 16113" transform="translate(16.382 31.302)">
            <path id="Path_5423" data-name="Path 5423" d="M0,0H65.758V42.52H0Z" fill="#c8e8d9"/>
            <g id="Group_16112" data-name="Group 16112">
              <g id="Group_16111" data-name="Group 16111" clip-path="url(#clip-path)">
                <path id="Path_5398" data-name="Path 5398" d="M471.786,139.872l-34.6,20.83h69.191Z" transform="translate(-438.878 -116.854)" fill="#8fc9ae" fill-rule="evenodd"/>
                <path id="Path_5399" data-name="Path 5399" d="M471.786,135.807l34.6-27.439H437.19Z" transform="translate(-438.878 -109.6)" fill="#059e4b" fill-rule="evenodd"/>
              </g>
            </g>
          </g>
          <path id="Path_5400" data-name="Path 5400" d="M519.137,95.785a9.457,9.457,0,1,1-9.458,9.458A9.462,9.462,0,0,1,519.137,95.785Z" transform="translate(-439.187 -75.401)" fill="#d05e57" fill-rule="evenodd"/>
          <text id="_1" data-name="1" transform="translate(78.667 29.47)" fill="#f2f4ff" font-size="7" font-family="Montserrat-SemiBold, Montserrat" font-weight="600"><tspan x="-1" y="0">1</tspan></text>
        </g>
      </g>
      <g id="Group_16118" data-name="Group 16118" transform="translate(0.158 24.018)">
        <g id="Group_16116" data-name="Group 16116" transform="translate(43.882 43.881)">
          <path id="Path_5401" data-name="Path 5401" d="M319.447,116.049a7.214,7.214,0,0,1,7.21-7.21h47.253a7.213,7.213,0,0,1,7.21,7.21v21.062a7.212,7.212,0,0,1-7.21,7.21l5.029,7.434-16.34-7.434H326.657a7.213,7.213,0,0,1-7.21-7.21Z" transform="translate(-319.447 -108.839)" fill="#508ca4" fill-rule="evenodd"/>
          <path id="Path_5402" data-name="Path 5402" d="M340.342,126.544a3.707,3.707,0,1,1-3.706,3.707A3.709,3.709,0,0,1,340.342,126.544Z" transform="translate(-323.405 -112.916)" fill="#fff" fill-rule="evenodd"/>
          <path id="Path_5403" data-name="Path 5403" d="M358.777,126.544a3.707,3.707,0,1,1-3.706,3.707A3.709,3.709,0,0,1,358.777,126.544Z" transform="translate(-327.65 -112.916)" fill="#fff" fill-rule="evenodd"/>
          <path id="Path_5404" data-name="Path 5404" d="M377.211,126.544a3.707,3.707,0,1,1-3.706,3.707A3.708,3.708,0,0,1,377.211,126.544Z" transform="translate(-331.895 -112.916)" fill="#fff" fill-rule="evenodd"/>
        </g>
        <g id="Group_16117" data-name="Group 16117">
          <path id="Path_5405" data-name="Path 5405" d="M368.142,59.486a7.66,7.66,0,0,0-7.657-7.655H270.095a7.66,7.66,0,0,0-7.657,7.655V81.85a7.661,7.661,0,0,0,7.657,7.657h5.354L270.584,97.4,285,89.507h75.49a7.661,7.661,0,0,0,7.657-7.657Z" transform="translate(-262.438 -51.831)" fill="#059e4b" fill-rule="evenodd"/>
          <rect id="Rectangle_546" data-name="Rectangle 546" width="82.276" height="1.981" transform="translate(12.37 13.019)" fill="#fff"/>
          <rect id="Rectangle_547" data-name="Rectangle 547" width="82.276" height="1.981" transform="translate(12.37 22.545)" fill="#fff"/>
        </g>
      </g>
      <g id="Group_16119" data-name="Group 16119" transform="translate(310.218 149.261)">
        <path id="Path_5406" data-name="Path 5406" d="M540.3,424.815c19.163,0,34.718,2.567,34.718,5.728s-15.556,5.729-34.718,5.729-34.717-2.567-34.717-5.729S521.14,424.815,540.3,424.815Z" transform="translate(-498.615 -300.425)" fill="#ced5ea" fill-rule="evenodd"/>
        <path id="Path_5407" data-name="Path 5407" d="M566.457,393.13v-13.26a7.438,7.438,0,1,1,0,13.26Zm0,7.861v11.443a3.1,3.1,0,0,1-3.1,3.1H521.752a3.1,3.1,0,0,1-3.1-3.1V360.326a3.1,3.1,0,0,1,3.1-3.1h41.609a3.1,3.1,0,0,1,3.1,3.1v11.682a15.3,15.3,0,0,1,3.414-.385,14.877,14.877,0,1,1,0,29.751A15.3,15.3,0,0,1,566.457,400.991Z" transform="translate(-501.625 -284.862)" fill="#059e4b" fill-rule="evenodd"/>
        <path id="Path_5408" data-name="Path 5408" d="M563.793,362.683a2.09,2.09,0,0,0-2.089-2.089h-35.82a2.089,2.089,0,1,0,0,4.177H561.7A2.09,2.09,0,0,0,563.793,362.683Z" transform="translate(-502.808 -285.637)" fill="#535cc7" fill-rule="evenodd"/>
        <path id="Path_5409" data-name="Path 5409" d="M553.577,342.321c.015.053-28.442.083-28.472.037-2.781-4.411-3.77-10.027-6.517-14.38-2.465-3.91-5.728-7.31-7.119-11.835a30.317,30.317,0,0,1-1.147-10.1c.228-4.416,1.464-8.634-.313-12.919-2.87-6.924-9.977-11.053-12.675-18.061-1.319-3.425-.846-7.369.209-10.788.217-.7,1.159-.932,1.79-1.009a13.022,13.022,0,0,1,5.84,1.01c4.841,1.753,9.35,4.254,14.125,6.168,2.85,1.144,6.031,2.268,9.151,2.111,8.636-.436,16.5-5.577,25.323-5.014,6.841.436,12.219,5.552,18.833,6.827,3.55.684,7.12-.648,10.712-.225.676.08,3.188.277,3.575,1,.179.333-1.5,1.184-1.664,1.26a26.074,26.074,0,0,0-5.382,3.171c-4.9,3.932-9.033,7.416-11.495,13.351a28.646,28.646,0,0,0-2.439,11.789c.2,3.711,1.71,7.264.323,10.965-1.09,2.906-4.3,4.822-6.561,6.761a19.406,19.406,0,0,0-6.293,9.15A19.046,19.046,0,0,0,553.577,342.321Z" transform="translate(-496.53 -263.214)" fill-rule="evenodd" fill="url(#linear-gradient)"/>
      </g>
      <g id="Group_16120" data-name="Group 16120" transform="translate(164.189 110.816)">
        <path id="Path_5410" data-name="Path 5410" d="M316.539,213.268l2.934,6.181,6.787.881-4.972,4.7,1.258,6.727-6.007-3.276-6.007,3.276,1.259-6.727-4.972-4.7,6.785-.881Z" transform="translate(-306.818 -213.268)" fill="#e7a35a" fill-rule="evenodd"/>
        <path id="Path_5411" data-name="Path 5411" d="M347.58,213.268l2.934,6.181,6.787.881-4.972,4.7,1.259,6.727-6.007-3.276-6.007,3.276,1.259-6.727-4.972-4.7,6.785-.881Z" transform="translate(-313.965 -213.268)" fill="#e7a35a" fill-rule="evenodd"/>
        <path id="Path_5412" data-name="Path 5412" d="M378.15,213.268l2.934,6.181,6.786.881-4.972,4.7,1.259,6.727-6.007-3.276-6.007,3.276,1.259-6.727-4.972-4.7,6.785-.881Z" transform="translate(-321.005 -213.268)" fill="#e7a35a" fill-rule="evenodd"/>
      </g>
    </g>
  </g>
</svg>
